<mxfile host="app.diagrams.net" modified="2023-12-06T13:47:57.313Z" agent="Mozilla/5.0 (Windows NT 10.0; Win64; x64) AppleWebKit/537.36 (KHTML, like Gecko) Chrome/119.0.0.0 Safari/537.36 Edg/119.0.0.0" version="22.1.6" etag="HS0ufeJ2zU3Tplo-xf4r" type="github">
  <diagram name="Page-1" id="zFBlSZXYxwJVqpNvBdry">
    <mxGraphModel>
      <root>
        <mxCell id="0" />
        <mxCell id="1" parent="0" />
      </root>
    </mxGraphModel>
  </diagram>
</mxfile>
